<svg height="472pt" viewBox="0 -19 472.156 472" width="472pt" xmlns="http://www.w3.org/2000/svg"><path d="M188.992 182.48a24 24 0 0017.281-40.633l-11.07-11.495a8.015 8.015 0 00-5.601-2.446 8.263 8.263 0 00-5.696 2.23l-23.105 22.2-23.047 22.2a8.003 8.003 0 003.242 13.61 8.003 8.003 0 007.844-2.08l17.289-16.648 2.121 2.2-10.297 29.054a8.015 8.015 0 001.402 7.933 8.009 8.009 0 007.594 2.688 7.998 7.998 0 006.082-5.277l8.754-24.72a24.029 24.029 0 007.207 1.184zm.211-35.296l5.55 5.761a8.025 8.025 0 01-.206 11.344 8.025 8.025 0 01-11.344-.207l-5.547-5.77zm-38.273-5.071a23.784 23.784 0 0015.855-6.633c9.547-9.195 9.836-24.386.64-33.937L156.32 90.016a8 8 0 00-11.304-.207l-46.094 44.398a7.998 7.998 0 00-.207 11.313l11.094 11.52a23.825 23.825 0 0016.8 7.347h.465c12.578.027 23.012-9.73 23.824-22.282zm-.578-35.199l5.546 5.758a8.002 8.002 0 01-.218 11.312 7.12 7.12 0 01-5.696 2.243 7.947 7.947 0 01-5.597-2.45l-5.547-5.77zm-17.72 39.27a7.284 7.284 0 01-5.695 2.242 7.956 7.956 0 01-5.601-2.457l-5.543-5.762 11.52-11.094 5.542 5.758a8 8 0 01-.222 11.281zm118.048 41.785a7.994 7.994 0 00-8.934-1.793l-62.754 27.113a8 8 0 006.344 14.688l10.601-4.582 17.282 17.949-4.969 10.402c-1.902 3.984-.21 8.762 3.773 10.664a7.855 7.855 0 003.442.797 7.988 7.988 0 007.2-4.55l29.448-61.688a7.997 7.997 0 00-1.433-9zm-39.055 28.648l16.879-7.297-7.918 16.602zm100.105 34.735a8.002 8.002 0 00-11.312-.215l-26.016 25.047 11.559-46.153a7.995 7.995 0 00-3.754-8.855 8.003 8.003 0 00-9.55 1.152l-46.094 44.402a7.993 7.993 0 00-.067 11.165 8 8 0 0011.16.355l26.008-25.05-11.559 46.152a8 8 0 0013.305 7.714l46.086-44.402a8.002 8.002 0 00.234-11.312zm16.649 17.288a8.02 8.02 0 00-5.602-2.456 8.892 8.892 0 00-5.695 2.242l-46.098 44.398a8.003 8.003 0 00-.214 11.305l5.55 5.77a40.005 40.005 0 0067.852-16.368 40.001 40.001 0 00-10.25-39.129zm-6.61 50.794c-9.546 9.195-24.738 8.914-33.937-.633l34.57-33.305c9.196 9.547 8.914 24.742-.632 33.938zm109.544-57.496l8.968-8.97-11.312-11.312-8.969 8.969v-12.688h-16v12.688l-8.969-8.969-11.308 11.313 8.965 8.969H380v16h12.688l-8.965 8.976 11.308 11.313L404 289.25v12.688h16V289.25l8.969 8.977 11.312-11.313-8.969-8.976H444v-16zm0 0"/><path d="M412 209.938a59.683 59.683 0 00-38.11 13.695L169.13 11.05a7.992 7.992 0 00-6.29-2.442L30.603 17.145 16.52 2.527a7.999 7.999 0 00-11.313-.21 8.003 8.003 0 00-.215 11.316l13.922 14.449L.09 153.945a7.988 7.988 0 002.144 6.735l260.848 270.808a7.998 7.998 0 0011.313.215l111.789-107.68c22.257 10.688 48.785 6.653 66.855-10.171 18.066-16.82 23.992-42.993 14.922-65.954-9.066-22.96-31.274-38.023-55.961-37.96zM32.922 42.625l11.926 12.383a23.933 23.933 0 0020.96 34.688h.458c13.254.124 24.097-10.524 24.218-23.778.121-13.258-10.523-24.098-23.777-24.223a23.065 23.065 0 00-10.328 2.203L45.137 32.242l115.031-7.426 2.984 3.098-138.289 133.2-8.367-8.696zm27.793 17.313a7.915 7.915 0 015.535-2.243h.16a8.002 8.002 0 015.39 13.762 7.521 7.521 0 01-5.695 2.23 7.998 7.998 0 01-5.398-13.757zm208.344 354.687l-35.336-36.688h73.422zm54.445-52.441v-.247h-105.2L36 172.633l138.25-133.2 188.8 196c-17.753 25.024-13.648 59.43 9.497 79.575zM412 313.937c-24.3 0-44-19.699-44-44s19.7-44 44-44 44 19.7 44 44c-.023 24.29-19.71 43.973-44 44zm0 0"/></svg>